<svg width="80" height="80" viewBox="0 0 80 80" fill="none" xmlns="http://www.w3.org/2000/svg">
<g clip-path="url(#clip0_2345_1954)">
<path d="M39.8492 4.00001C37.5252 4.00102 35.391 5.28312 34.2988 7.33443C33.2065 9.38574 33.334 11.8721 34.6304 13.8009L37.3175 11.1176C37.2287 10.8499 37.1839 10.5696 37.1848 10.2876C37.1848 8.8224 38.3726 7.63462 39.8378 7.63462C41.303 7.63462 42.4908 8.8224 42.4908 10.2876C42.4908 11.7528 41.303 12.9406 39.8378 12.9406C39.5571 12.9412 39.2781 12.8964 39.0116 12.808L36.3283 15.4913C38.5629 17.0068 41.5155 16.9265 43.6644 15.2918C45.8133 13.6571 46.6786 10.8329 45.8144 8.27497C44.9501 5.71702 42.5492 3.99642 39.8492 4.00001Z" fill="#34A853"/>
<path d="M37.3466 22.3246C37.3507 20.2006 36.6629 18.1331 35.3872 16.4349L31.9004 19.9179C32.9908 21.9124 32.5984 24.3914 30.9453 25.9516L32.8403 30.583C35.6481 28.7747 37.3453 25.6643 37.3466 22.3246Z" fill="#FBBC04"/>
<path d="M27.6033 27.3237H27.5123C25.3736 27.3239 23.4713 25.9645 22.7787 23.9411C22.0861 21.9176 22.7563 19.6777 24.4465 18.3672C26.1367 17.0568 28.4729 16.9657 30.2601 18.1405L33.7127 14.6878C30.3554 11.966 25.6142 11.7561 22.0295 14.1705C18.4447 16.5848 16.8572 21.0573 18.1175 25.1915C19.3778 29.3257 23.1903 32.1519 27.5123 32.1559C28.1792 32.1562 28.8445 32.0902 29.4983 31.9588L27.6033 27.3237Z" fill="#EA4335"/>
<path d="M39.981 31.3297C37.7988 31.3275 35.628 31.6455 33.538 32.2734L36.301 39.0234C37.5036 38.7254 38.7382 38.5752 39.9772 38.5762C47.1569 38.5783 53.3353 43.6515 54.7344 50.6935C56.1335 57.7355 52.3636 64.7852 45.73 67.5316C39.0965 70.2781 31.4466 67.9565 27.4584 61.9865C23.4702 56.0164 24.2542 48.0606 29.3311 42.984C30.3905 41.9279 31.5999 41.0339 32.9203 40.331L30.1877 33.5999C20.0019 38.5884 15.1792 50.4247 18.9783 61.1113C22.7774 71.7979 33.9893 77.9339 45.0383 75.3733C56.0873 72.8127 63.4571 62.3704 62.1682 51.1021C60.8793 39.8337 51.3418 31.3254 40 31.3259L39.981 31.3297Z" fill="#4285F4"/>
</g>
<defs>
<clipPath id="clip0_2345_1954">
<rect width="44.6295" height="72" fill="white" transform="translate(17.6855 4)"/>
</clipPath>
</defs>
</svg>
